<mxfile host="app.diagrams.net" modified="2023-08-25T12:06:22.320Z" agent="Mozilla/5.0 (Windows NT 10.0; Win64; x64) AppleWebKit/537.36 (KHTML, like Gecko) Chrome/115.0.0.0 Safari/537.36" version="21.6.9" etag="TRQR9Sw-LAY13DgU5HFH" type="github">
  <diagram name="Page-1" id="KsELA8L_fQdkAs5HX99N">
    <mxGraphModel>
      <root>
        <mxCell id="0" />
        <mxCell id="1" parent="0" />
      </root>
    </mxGraphModel>
  </diagram>
</mxfile>
